<?xml version="1.0" standalone="no"?>
<!DOCTYPE svg PUBLIC "-//W3C//DTD SVG 20010904//EN"
 "http://www.w3.org/TR/2001/REC-SVG-20010904/DTD/svg10.dtd">
<svg version="1.0" xmlns="http://www.w3.org/2000/svg"
 width="1254.000000pt" height="1254.000000pt" viewBox="0 0 1254.000000 1254.000000"
 preserveAspectRatio="xMidYMid meet">

<g transform="translate(0.000000,1254.000000) scale(0.100000,-0.100000)"
fill="#000000" stroke="none">
<path d="M0 6270 l0 -6270 6270 0 6270 0 0 6270 0 6270 -6270 0 -6270 0 0
-6270z m5165 4021 c48 -21 97 -74 123 -133 33 -74 140 -208 261 -328 92 -92
411 -370 594 -519 25 -21 38 -24 96 -22 56 2 75 -2 128 -29 39 -20 79 -50 107
-82 l44 -51 159 134 c436 366 645 581 818 839 74 111 96 133 150 155 122 52
262 -20 298 -153 19 -70 102 -133 494 -375 315 -195 409 -258 537 -361 l101
-81 50 13 c28 7 68 10 90 7 60 -8 139 -51 180 -96 43 -48 16 -64 222 129 281
264 483 521 595 759 61 130 117 173 223 173 123 0 210 -89 209 -216 0 -54 -7
-74 -59 -178 -153 -308 -395 -605 -770 -946 l-133 -122 39 -51 c72 -95 88
-222 40 -319 l-21 -42 43 -65 c146 -226 322 -428 611 -703 217 -205 220 -208
263 -208 60 0 101 -20 145 -68 103 -115 65 -274 -83 -350 -103 -52 -234 -157
-385 -307 -134 -133 -227 -239 -586 -665 -85 -102 -165 -193 -176 -204 l-22
-19 40 -47 c53 -63 81 -129 88 -203 5 -61 6 -62 136 -221 382 -470 627 -699
898 -839 99 -51 136 -99 145 -190 11 -110 -67 -213 -172 -224 -53 -6 -45 3
-262 -293 -290 -394 -463 -571 -848 -864 -71 -55 -133 -102 -138 -106 -4 -3 6
-36 23 -73 34 -74 40 -154 17 -210 -33 -77 -138 -136 -220 -123 -87 14 -143
62 -185 158 -29 66 -117 183 -189 249 -73 67 -209 169 -358 270 -238 159 -439
315 -534 412 l-43 45 -73 -5 c-77 -6 -148 11 -194 46 l-24 19 -81 -71 c-103
-88 -274 -220 -491 -377 -209 -152 -340 -258 -423 -342 l-63 -65 17 -42 c24
-61 16 -157 -18 -209 -39 -59 -121 -97 -190 -89 -31 4 -71 18 -97 35 -40 24
-53 42 -101 138 -112 225 -200 308 -651 618 -103 70 -235 166 -294 214 -59 48
-116 93 -125 100 -14 10 -24 10 -53 -3 -79 -33 -210 -12 -278 44 l-34 29 -65
-57 c-36 -31 -123 -104 -195 -161 -397 -317 -562 -486 -689 -703 -29 -51 -56
-104 -60 -120 -4 -15 -25 -45 -48 -67 -121 -118 -306 -68 -350 93 -10 41 -10
57 4 110 9 34 15 62 15 63 -1 1 -74 52 -162 114 -235 167 -383 287 -534 434
-167 164 -235 245 -446 526 -210 282 -198 269 -238 261 -145 -31 -278 119
-238 269 24 88 67 123 204 166 194 60 479 306 835 722 92 108 186 217 209 244
l43 49 -53 62 c-72 85 -101 153 -101 242 0 58 5 81 27 128 17 33 25 62 21 69
-17 28 -261 368 -318 443 -218 288 -527 541 -725 595 -81 21 -151 117 -151
206 0 115 96 213 207 214 23 0 72 -11 110 -24 l67 -25 67 55 c344 282 672 634
852 917 l18 28 -68 67 c-93 91 -118 143 -118 247 0 68 4 89 26 132 l27 50 -50
59 c-28 33 -151 167 -273 299 -336 362 -395 436 -479 603 -75 149 -73 240 8
318 71 68 165 81 254 35 50 -26 72 -53 121 -146 62 -119 151 -237 306 -406 77
-83 208 -231 292 -327 l152 -176 78 -1 c93 -1 150 -23 217 -85 l45 -41 113 79
c138 97 267 175 469 283 364 195 566 322 689 433 l39 35 -36 70 c-29 57 -36
81 -36 128 0 92 51 169 133 202 41 16 131 12 175 -8z"/>
<path d="M7667 9600 c-163 -195 -413 -431 -735 -694 l-182 -148 70 -75 c148
-158 247 -295 450 -618 149 -237 230 -355 327 -475 l69 -84 90 -1 c90 0 146
-18 196 -63 21 -18 0 -34 275 207 229 202 437 403 528 512 73 87 215 286 215
302 0 6 -36 48 -80 93 -48 49 -89 101 -101 130 -29 64 -35 155 -15 219 l16 50
-37 33 c-117 101 -284 212 -676 450 -85 52 -196 125 -248 163 -51 38 -96 69
-99 69 -3 0 -31 -32 -63 -70z"/>
<path d="M5169 9534 c-18 -22 -145 -118 -239 -181 -106 -71 -263 -163 -500
-293 -341 -188 -579 -342 -561 -364 75 -96 128 -171 185 -261 194 -306 236
-370 326 -490 88 -118 276 -331 377 -428 38 -36 43 -38 115 -41 54 -2 88 -9
117 -25 l42 -21 192 193 c106 106 292 289 413 407 206 201 316 327 371 427
l17 32 -67 62 c-112 102 -150 194 -127 306 7 32 18 70 26 85 l14 27 -243 204
c-133 113 -283 243 -334 291 -50 47 -95 86 -101 86 -5 0 -16 -7 -23 -16z"/>
<path d="M6585 8221 c-52 -27 -147 -35 -207 -18 -25 7 -31 1 -99 -90 -74 -101
-240 -271 -574 -589 -104 -99 -231 -228 -281 -285 l-91 -104 39 -45 c63 -71
81 -114 86 -207 l4 -83 122 -109 c66 -60 152 -135 190 -167 143 -122 385 -335
391 -344 4 -6 19 -3 38 7 21 10 57 16 102 16 94 1 159 -28 224 -99 l49 -53
133 105 c319 252 506 413 652 561 l68 70 -35 41 c-72 87 -84 207 -32 311 l27
52 -49 57 c-86 100 -219 282 -334 459 -266 408 -354 537 -363 539 -5 0 -32
-11 -60 -25z"/>
<path d="M9245 8113 c-150 -228 -292 -377 -675 -715 -135 -119 -263 -234 -284
-257 l-39 -40 36 -40 c69 -77 94 -158 77 -250 l-11 -56 88 -85 c48 -47 196
-180 328 -295 l240 -210 85 -1 c66 0 97 -5 136 -23 l52 -23 44 49 c63 67 153
173 298 348 203 245 380 443 504 563 64 63 116 116 116 120 0 3 -120 127 -268
276 -276 280 -389 410 -519 603 -106 156 -126 159 -208 36z"/>
<path d="M3635 8169 c-60 -22 -116 -24 -177 -5 l-46 13 -64 -91 c-36 -50 -103
-138 -149 -196 -91 -115 -451 -480 -596 -604 l-92 -79 120 -115 c186 -179 324
-345 570 -692 l75 -104 59 -2 c103 -4 191 -57 252 -151 21 -32 38 -60 40 -62
1 -2 24 14 50 36 26 22 134 104 238 184 228 173 346 270 489 405 l108 102 -34
44 c-65 85 -76 211 -26 300 l24 43 -122 130 c-67 72 -153 166 -189 210 -145
173 -354 467 -432 606 -16 27 -32 48 -38 48 -5 -1 -32 -10 -60 -20z"/>
<path d="M4730 6447 c-147 -141 -288 -259 -575 -479 -323 -249 -290 -217 -275
-262 7 -23 50 -80 109 -144 146 -162 262 -321 427 -588 114 -186 190 -296 251
-369 l59 -70 51 3 c66 5 148 -19 200 -57 l41 -30 184 156 c317 270 545 511
760 804 l56 76 -49 49 c-88 87 -122 192 -96 292 l14 53 -91 82 c-123 112 -223
199 -331 287 -49 41 -132 112 -183 159 l-94 84 -55 -12 c-87 -20 -188 1 -258
54 l-30 22 -115 -110z"/>
<path d="M7731 6501 c-6 -10 -77 -82 -159 -158 -196 -183 -365 -324 -714 -593
-19 -15 -19 -16 8 -75 16 -35 28 -80 30 -112 2 -50 7 -58 84 -150 109 -131
220 -280 375 -503 70 -102 153 -218 183 -258 l55 -73 47 6 c64 9 148 -15 208
-58 l48 -34 144 120 c266 222 508 478 694 735 l67 93 -55 61 c-74 81 -100 148
-94 243 3 40 13 85 23 105 l18 34 -50 46 c-27 25 -127 113 -223 195 -96 83
-220 194 -276 247 l-101 97 -39 -10 c-56 -16 -133 -5 -195 28 -30 15 -57 29
-61 31 -4 2 -11 -6 -17 -17z"/>
<path d="M3655 5211 c-67 -35 -178 -36 -242 -3 -23 12 -44 22 -47 22 -3 0 -92
-100 -198 -222 -284 -327 -592 -630 -736 -724 -4 -2 77 -114 239 -333 248
-334 418 -492 827 -771 l123 -84 41 49 c107 130 361 359 776 701 l25 21 -31
46 c-40 57 -65 148 -56 202 3 22 15 61 26 87 l20 48 -39 47 c-81 98 -183 243
-299 428 -161 257 -347 515 -369 513 -5 0 -32 -13 -60 -27z"/>
<path d="M6314 5183 c-6 -10 -65 -85 -131 -168 -194 -242 -407 -454 -763 -760
-69 -59 -127 -111 -128 -116 -2 -5 11 -26 29 -46 45 -52 70 -114 73 -185 3
-61 4 -62 57 -106 123 -99 217 -168 415 -303 230 -156 345 -243 438 -329 l61
-58 55 50 c99 88 231 192 450 353 196 144 329 247 435 338 l39 34 -32 37 c-59
68 -76 113 -77 201 0 64 4 89 23 123 25 48 26 44 -33 122 -39 51 -121 170
-290 415 -72 106 -204 278 -267 350 l-38 43 -47 -15 c-62 -19 -156 -12 -210
16 -51 25 -46 25 -59 4z"/>
<path d="M9001 5010 c-183 -245 -391 -459 -711 -728 -69 -58 -127 -107 -129
-108 -2 -2 13 -25 33 -52 55 -75 69 -123 62 -213 l-5 -75 72 -65 c109 -99 247
-204 439 -335 186 -127 355 -251 377 -277 24 -29 6 -40 274 166 155 119 357
313 477 457 81 98 359 477 360 491 0 4 -42 39 -92 80 -173 135 -529 512 -709
748 l-25 34 -47 -18 c-61 -23 -165 -17 -224 14 -23 11 -44 21 -45 21 -2 -1
-50 -63 -107 -140z"/>
</g>
</svg>
